<svg width="429" height="75" viewBox="0 0 429 75" fill="none" xmlns="http://www.w3.org/2000/svg">
<rect x="0.850993" y="0.850993" width="427.298" height="73.298" rx="11.0629" fill="url(#paint0_linear_71_997)"/>
<rect x="0.850993" y="0.850993" width="427.298" height="73.298" rx="11.0629" stroke="url(#paint1_linear_71_997)" stroke-width="1.70199"/>
<path d="M51.5173 55C47.5766 55 43.6832 54.1172 39.8371 52.3517C35.9909 50.5861 32.4916 48.0823 29.339 44.8403C26.1865 41.5982 23.7515 38.001 22.0339 34.0486C20.3164 30.0962 19.457 26.0939 19.4558 22.0417C19.4558 21.4583 19.6449 20.9722 20.0232 20.5833C20.4015 20.1944 20.8744 20 21.4419 20H29.1026C29.544 20 29.938 20.1543 30.2848 20.4628C30.6316 20.7713 30.8365 21.1356 30.8996 21.5556L32.1291 28.3611C32.1921 28.8796 32.1763 29.3171 32.0818 29.6736C31.9872 30.0301 31.8138 30.338 31.5616 30.5972L26.9746 35.3611C27.6051 36.5602 28.3536 37.7184 29.2199 38.8358C30.0862 39.9532 31.0402 41.0311 32.0818 42.0694C33.0591 43.0741 34.0836 44.0061 35.1555 44.8656C36.2274 45.725 37.3623 46.5106 38.5603 47.2222L43.0054 42.6528C43.2891 42.3611 43.6599 42.1427 44.1176 41.9975C44.5754 41.8523 45.0243 41.8115 45.4644 41.875L51.9902 43.2361C52.4315 43.3657 52.7941 43.601 53.0778 43.9419C53.3615 44.2829 53.5034 44.6633 53.5034 45.0833V52.9583C53.5034 53.5417 53.3142 54.0278 52.9359 54.4167C52.5576 54.8056 52.0847 55 51.5173 55Z" fill="white"/>
<defs>
<linearGradient id="paint0_linear_71_997" x1="0" y1="37.5" x2="429" y2="37.5" gradientUnits="userSpaceOnUse">
<stop stop-color="#1C56BA"/>
<stop offset="1" stop-color="#0D2754"/>
</linearGradient>
<linearGradient id="paint1_linear_71_997" x1="0" y1="37.5" x2="429" y2="37.5" gradientUnits="userSpaceOnUse">
<stop stop-color="#1C56BA"/>
<stop offset="1" stop-color="#0D2754"/>
</linearGradient>
</defs>
</svg>
