<svg width="75" height="75" viewBox="0 0 75 75" fill="none" xmlns="http://www.w3.org/2000/svg">
<path d="M63.2812 44.5312C67.1578 44.5312 70.3125 41.3766 70.3125 37.5C70.3125 33.6234 67.1578 30.4688 63.2812 30.4688C61.8318 30.4731 60.4192 30.926 59.2375 31.7653C58.0557 32.6046 57.1628 33.7891 56.6813 35.1562H43.1578L60.2672 18.0469C61.1859 18.4852 62.1984 18.75 63.2812 18.75C67.1578 18.75 70.3125 15.5953 70.3125 11.7188C70.3125 7.84219 67.1578 4.6875 63.2812 4.6875C59.4047 4.6875 56.25 7.84219 56.25 11.7188C56.25 12.8016 56.5172 13.8141 56.9531 14.7305L37.5 34.1859V18.75C37.5 16.1672 39.6023 14.0625 42.1875 14.0625H46.875V9.375H42.1875C39.375 9.375 36.8766 10.6477 35.1562 12.6141C34.2844 11.6023 33.2055 10.7895 31.9925 10.2307C30.7795 9.67188 29.4606 9.38007 28.125 9.375H25.7812C14.1516 9.375 4.6875 18.8367 4.6875 30.4688V44.5312C4.6875 56.1633 14.1516 65.625 25.7812 65.625H28.125C30.9375 65.625 33.4359 64.3547 35.1562 62.3859C36.8766 64.3547 39.375 65.625 42.1875 65.625H46.875V60.9375H42.1875C39.6023 60.9375 37.5 58.8352 37.5 56.25V40.8141L56.9531 60.2695C56.5148 61.1859 56.25 62.1984 56.25 63.2812C56.25 67.1602 59.4047 70.3125 63.2812 70.3125C67.1578 70.3125 70.3125 67.1602 70.3125 63.2812C70.3125 59.4023 67.1578 56.25 63.2812 56.25C62.237 56.2555 61.2076 56.4967 60.2695 56.9555L43.1578 39.8461H56.6813C57.1632 41.2128 58.0563 42.3968 59.238 43.2357C60.4197 44.0746 61.8321 44.5271 63.2812 44.5312ZM63.2812 35.1562C63.9029 35.1562 64.499 35.4032 64.9385 35.8427C65.3781 36.2823 65.625 36.8784 65.625 37.5C65.625 38.1216 65.3781 38.7177 64.9385 39.1573C64.499 39.5968 63.9029 39.8438 63.2812 39.8438C62.6596 39.8438 62.0635 39.5968 61.624 39.1573C61.1844 38.7177 60.9375 38.1216 60.9375 37.5C60.9375 36.8784 61.1844 36.2823 61.624 35.8427C62.0635 35.4032 62.6596 35.1562 63.2812 35.1562ZM63.2812 9.375C63.8847 9.40199 64.4545 9.66072 64.872 10.0973C65.2895 10.5339 65.5225 11.1147 65.5225 11.7188C65.5225 12.3228 65.2895 12.9036 64.872 13.3402C64.4545 13.7768 63.8847 14.0355 63.2812 14.0625C62.6596 14.0625 62.0635 13.8156 61.624 13.376C61.1844 12.9365 60.9375 12.3404 60.9375 11.7188C60.9375 11.0971 61.1844 10.501 61.624 10.0615C62.0635 9.62193 62.6596 9.375 63.2812 9.375ZM32.8125 28.125H28.125V32.8125H32.8125V42.1875H28.125C24.2484 42.1875 21.0938 45.3422 21.0938 49.2188V53.9062H25.7812V49.2188C25.7812 48.5971 26.0282 48.001 26.4677 47.5615C26.9073 47.1219 27.5034 46.875 28.125 46.875H32.8125V56.25C32.8125 58.8352 30.7102 60.9375 28.125 60.9375H25.7812C17.5313 60.9375 10.7062 54.8133 9.5625 46.875H14.0625V42.1875H9.375V32.8125H16.4062C20.2828 32.8125 23.4375 29.6578 23.4375 25.7812V21.0938H18.75V25.7812C18.75 26.4029 18.5031 26.999 18.0635 27.4385C17.624 27.8781 17.0279 28.125 16.4062 28.125H9.5625C10.7062 20.1867 17.5313 14.0625 25.7812 14.0625H28.125C30.7102 14.0625 32.8125 16.1672 32.8125 18.75V28.125ZM65.625 63.2812C65.598 63.8847 65.3393 64.4545 64.9027 64.872C64.4661 65.2895 63.8853 65.5225 63.2812 65.5225C62.6772 65.5225 62.0964 65.2895 61.6598 64.872C61.2232 64.4545 60.9645 63.8847 60.9375 63.2812C60.9375 61.9898 61.9898 60.9375 63.2812 60.9375C64.5727 60.9375 65.625 61.9898 65.625 63.2812Z" fill="black"/>
</svg>
