<svg width="461" height="388" viewBox="0 0 461 388" fill="none" xmlns="http://www.w3.org/2000/svg">
<g clip-path="url(#clip0_71_1615)">
<path opacity="0.8" d="M38.7733 321.207C25.9097 323.704 11.9818 319.709 7.64575 312.286C3.32284 304.862 10.2474 296.82 23.111 294.324C35.9746 291.827 49.9025 295.822 54.2386 303.259C58.5615 310.683 51.6369 318.724 38.7733 321.22V321.207Z" fill="#0C0F38"/>
<path opacity="0.8" d="M442.995 218.058C433.744 219.858 423.732 216.981 420.631 211.646C417.517 206.311 422.497 200.53 431.747 198.73C440.997 196.93 451.01 199.807 454.111 205.142C457.225 210.477 452.245 216.258 442.995 218.058Z" fill="#0C0F38"/>
<path opacity="0.8" d="M74.1617 81.9936C69.5497 82.8871 64.5435 81.4549 62.9931 78.7876C61.4426 76.1202 63.926 73.2296 68.5379 72.3361C73.1499 71.4426 78.1561 72.8748 79.7065 75.5421C81.257 78.2094 78.7736 81.1001 74.1617 81.9936Z" fill="#0C0F38"/>
<path d="M30.8911 314.258C47.9517 314.258 61.7821 300.428 61.7821 283.367C61.7821 266.307 47.9517 252.476 30.8911 252.476C13.8304 252.476 0 266.307 0 283.367C0 300.428 13.8304 314.258 30.8911 314.258Z" fill="url(#paint0_linear_71_1615)"/>
<path d="M70.8746 77.8782C77.9427 77.8782 83.6725 72.1483 83.6725 65.0803C83.6725 58.0122 77.9427 52.2823 70.8746 52.2823C63.8065 52.2823 58.0767 58.0122 58.0767 65.0803C58.0767 72.1483 63.8065 77.8782 70.8746 77.8782Z" fill="url(#paint1_linear_71_1615)"/>
<path d="M453.635 205.955C462.614 196.976 462.614 182.417 453.635 173.437C444.655 164.457 430.096 164.457 421.116 173.437C412.136 182.417 412.136 196.976 421.116 205.955C430.096 214.935 444.655 214.935 453.635 205.955Z" fill="url(#paint2_linear_71_1615)"/>
<g style="mix-blend-mode:lighten" opacity="0.8">
<path d="M158.673 11.8521C158.673 13.6653 157.201 15.1238 155.401 15.1238C153.601 15.1238 152.13 13.6522 152.13 11.8521C152.13 10.052 153.601 8.58032 155.401 8.58032C157.201 8.58032 158.673 10.052 158.673 11.8521Z" fill="#FF6A06"/>
</g>
<g style="mix-blend-mode:lighten" opacity="0.8">
<path d="M97.9421 349.078C100.126 349.078 101.897 347.308 101.897 345.123C101.897 342.939 100.126 341.168 97.9421 341.168C95.7578 341.168 93.9871 342.939 93.9871 345.123C93.9871 347.308 95.7578 349.078 97.9421 349.078Z" fill="#FF6A06"/>
</g>
<g style="mix-blend-mode:lighten">
<path d="M74.948 327.648C74.948 328.765 74.0414 329.684 72.9114 329.684C71.7814 329.684 70.8748 328.778 70.8748 327.648C70.8748 326.518 71.7814 325.611 72.9114 325.611C74.0414 325.611 74.948 326.518 74.948 327.648Z" fill="#6EE8FC"/>
</g>
<g style="mix-blend-mode:lighten">
<path d="M419.979 252.608C419.979 253.764 419.033 254.71 417.877 254.71C416.72 254.71 415.774 253.764 415.774 252.608C415.774 251.451 416.72 250.505 417.877 250.505C419.033 250.505 419.979 251.451 419.979 252.608Z" fill="#6EE8FC"/>
</g>
<g style="mix-blend-mode:lighten">
<path d="M31.259 110.793C31.259 112.422 29.9319 113.749 28.3026 113.749C26.6733 113.749 25.3462 112.422 25.3462 110.793C25.3462 109.163 26.6733 107.836 28.3026 107.836C29.9319 107.836 31.259 109.163 31.259 110.793Z" fill="#6EE8FC"/>
</g>
<g style="mix-blend-mode:lighten">
<path d="M252.279 2.95652C252.279 4.58582 250.952 5.91291 249.323 5.91291C247.693 5.91291 246.366 4.58582 246.366 2.95652C246.366 1.32722 247.693 0.00012207 249.323 0.00012207C250.952 0.00012207 252.279 1.32722 252.279 2.95652Z" fill="#6EE8FC"/>
</g>
<g style="mix-blend-mode:lighten">
<path d="M43.2948 104.236C43.2948 105.143 42.559 105.879 41.6524 105.879C40.7458 105.879 40.0099 105.143 40.0099 104.236C40.0099 103.33 40.7458 102.594 41.6524 102.594C42.559 102.594 43.2948 103.33 43.2948 104.236Z" fill="#6EE8FC"/>
</g>
<g style="mix-blend-mode:lighten">
<path d="M325.177 13.5207C325.177 14.585 324.31 15.4523 323.246 15.4523C322.182 15.4523 321.314 14.585 321.314 13.5207C321.314 12.4564 322.182 11.5892 323.246 11.5892C324.31 11.5892 325.177 12.4564 325.177 13.5207Z" fill="#FF6A06"/>
</g>
<path d="M41.048 207.763L40.3385 205.227L45.9622 203.65L44.3855 198.026L46.9214 197.33L49.2077 205.476L41.048 207.763Z" fill="#6EE1F8"/>
<path d="M36.0812 216.579L35.3717 214.043L40.9954 212.466L39.4318 206.843L41.9546 206.146L44.2409 214.293L36.0812 216.579Z" fill="#6EE1F8"/>
<path d="M41.35 213.741L39.0769 205.581L47.2234 203.295L47.933 205.831L42.3092 207.408L43.886 213.031L41.35 213.741Z" fill="#6EE1F8"/>
<path d="M235.408 19.7752C231.965 19.7752 229.154 16.9633 229.154 13.5208C229.154 10.0782 231.965 7.26636 235.408 7.26636C238.851 7.26636 241.662 10.0651 241.662 13.5208C241.662 16.9765 238.864 19.7752 235.408 19.7752ZM235.408 9.89427C233.411 9.89427 231.781 11.5236 231.781 13.5208C231.781 15.518 233.411 17.1473 235.408 17.1473C237.405 17.1473 239.034 15.518 239.034 13.5208C239.034 11.5236 237.405 9.89427 235.408 9.89427Z" fill="#6EE1F8"/>
<path d="M372.611 332.706L365.516 325.611L372.611 318.516L379.706 325.611L372.611 332.706ZM369.234 325.611L372.611 328.988L375.988 325.611L372.611 322.234L369.234 325.611Z" fill="#6EE1F8"/>
<path d="M389.499 73.6426L387.641 75.5008L395.241 83.1009L397.099 81.2427L389.499 73.6426Z" fill="#FF6A06"/>
<path d="M395.254 73.6426L387.654 81.2427L389.513 83.1009L397.113 75.5008L395.254 73.6426Z" fill="#FF6A06"/>
<path d="M226.736 378.445C221.152 378.445 215.817 377.315 211.836 375.016L90.9125 305.205C86.9575 302.919 84.7764 299.739 84.7764 296.231C84.7764 292.04 87.8904 287.848 93.3171 284.708L209.418 217.67C219.509 211.849 234.856 211.218 243.62 216.277L364.543 286.087C368.498 288.374 370.68 291.553 370.68 295.062C370.68 299.253 367.565 303.445 362.139 306.585L246.038 373.623C240.532 376.803 233.45 378.432 226.736 378.432V378.445ZM228.733 214.148C222.255 214.148 215.423 215.725 210.088 218.8L93.9872 285.838C88.981 288.728 86.1035 292.513 86.1035 296.218C86.1035 299.24 88.0481 302.026 91.5826 304.062L212.506 373.873C220.915 378.721 235.658 378.104 245.394 372.48L361.495 305.442C366.501 302.551 369.379 298.767 369.379 295.062C369.379 292.04 367.434 289.254 363.9 287.217L242.976 217.407C239.179 215.213 234.081 214.135 228.733 214.135V214.148Z" fill="url(#paint3_linear_71_1615)"/>
<path opacity="0.8" d="M216.237 353.887L126.888 302.302C120.529 298.636 121.33 292.223 128.662 287.993L214.45 238.456C221.782 234.226 232.885 233.766 239.232 237.432L328.58 289.017C334.94 292.683 334.138 299.095 326.807 303.326L241.018 352.862C233.687 357.093 222.584 357.553 216.237 353.887Z" fill="#0C0F38"/>
<path d="M339.145 137.755H292.197L239.928 107.573C233.201 103.684 221.441 104.17 213.662 108.664L163.285 137.755H116.351V269.282H116.364C116.167 271.91 117.638 274.446 120.871 276.325L215.554 330.985C222.282 334.874 234.041 334.388 241.82 329.895L332.719 277.415C336.753 275.089 338.908 272.133 339.118 269.282H339.158V137.755H339.145Z" fill="url(#paint4_linear_71_1615)"/>
<path d="M128.229 137.755H116.338V269.282H116.351C116.219 271.148 116.929 272.961 118.506 274.524C117.507 273.184 117.047 271.713 117.152 270.202H117.139V138.675H129.149C128.846 138.359 128.544 138.044 128.216 137.755H128.229Z" fill="#FF6A06"/>
<path d="M324.113 137.755C324.034 138.018 323.942 138.281 323.837 138.543H338.29V270.07H338.251C338.12 271.831 337.239 273.631 335.636 275.313C337.778 273.421 338.947 271.332 339.092 269.282H339.131V137.755H324.1H324.113Z" fill="#6DE0F6"/>
<path d="M215.541 199.458L120.857 144.798C114.13 140.909 114.971 134.129 122.75 129.635L213.649 77.1555C221.428 72.6618 233.174 72.1756 239.915 76.0649L334.598 130.725C341.326 134.615 340.485 141.395 332.706 145.888L241.807 198.368C234.028 202.861 222.282 203.348 215.541 199.458Z" fill="#FF6A06"/>
<path d="M216.592 199.458L121.909 144.798C115.181 140.908 116.022 134.128 123.801 129.635L214.7 77.1553C218.55 74.9347 223.385 73.6996 228.089 73.4893C223.057 73.555 217.801 74.777 213.662 77.1553L122.763 129.635C114.984 134.128 114.143 140.908 120.871 144.798L215.554 199.458C218.957 201.416 223.635 202.257 228.431 202.047C224.003 202.099 219.746 201.284 216.605 199.458H216.592Z" fill="#FF6A06"/>
<path d="M334.598 130.725L239.915 76.0649C236.512 74.1071 231.821 73.2661 227.025 73.4895C231.4 73.4501 235.592 74.2779 238.706 76.0649L333.39 130.725C340.117 134.615 339.276 141.395 331.497 145.888L240.598 198.368C236.748 200.588 231.939 201.823 227.235 202.034C232.32 201.994 237.642 200.772 241.82 198.368L332.719 145.888C340.498 141.395 341.339 134.615 334.612 130.725H334.598Z" fill="#6DE0F6"/>
<path d="M218.655 183.691L148.162 142.998C143.155 140.107 143.773 135.048 149.567 131.711L217.249 92.6339C223.031 89.2965 231.795 88.9285 236.801 91.8192L307.294 132.512C312.301 135.403 311.683 140.462 305.889 143.799L238.207 182.876C232.425 186.214 223.661 186.582 218.655 183.691Z" fill="#6DE0F6"/>
<path d="M149.581 139.319L217.262 100.242C223.044 96.9042 231.808 96.5363 236.814 99.427L307.308 140.12C307.965 140.501 308.516 140.922 308.976 141.355C311.67 138.32 311.197 134.759 307.308 132.512L236.814 91.8192C231.808 88.9285 223.044 89.2833 217.262 92.6339L149.581 131.711C144.548 134.615 143.418 138.806 146.506 141.763C147.281 140.895 148.293 140.054 149.581 139.319Z" fill="#133C80"/>
<path d="M244.514 208.787L324.599 162.457C325.335 162.037 325.926 160.894 325.926 159.921V158.608C325.926 157.635 325.335 157.175 324.599 157.609L244.514 203.939C243.778 204.359 243.187 205.503 243.187 206.475V207.789C243.187 208.761 243.778 209.221 244.514 208.787Z" fill="#6DE0F6"/>
<path d="M322.852 161.472C323.587 161.051 324.179 159.908 324.179 158.936V157.872L324.599 157.622C325.335 157.201 325.926 157.648 325.926 158.621V159.934C325.926 160.907 325.335 162.05 324.599 162.47L244.514 208.8C243.778 209.221 243.187 208.774 243.187 207.802V207.552L322.852 161.472Z" fill="#133C80"/>
<path d="M244.514 222.886L324.599 176.556C325.335 176.136 325.926 174.992 325.926 174.02V172.706C325.926 171.734 325.335 171.274 324.599 171.708L244.514 218.038C243.778 218.458 243.187 219.601 243.187 220.573V221.887C243.187 222.86 243.778 223.32 244.514 222.886Z" fill="#6DE0F6"/>
<path d="M322.852 175.557C323.587 175.137 324.179 173.994 324.179 173.021V171.957L324.599 171.708C325.335 171.287 325.926 171.734 325.926 172.706V174.02C325.926 174.992 325.335 176.136 324.599 176.556L244.514 222.886C243.778 223.307 243.187 222.86 243.187 221.887V221.638L322.852 175.557Z" fill="#133C80"/>
<path d="M244.514 236.985L324.599 190.655C325.335 190.234 325.926 189.091 325.926 188.119V186.805C325.926 185.833 325.335 185.373 324.599 185.806L244.514 232.136C243.778 232.557 243.187 233.7 243.187 234.672V235.986C243.187 236.959 243.778 237.418 244.514 236.985Z" fill="#6DE0F6"/>
<path d="M322.852 189.656C323.587 189.236 324.179 188.093 324.179 187.12V186.056L324.599 185.806C325.335 185.386 325.926 185.833 325.926 186.805V188.119C325.926 189.091 325.335 190.234 324.599 190.655L244.514 236.985C243.778 237.405 243.187 236.958 243.187 235.986V235.736L322.852 189.656Z" fill="#133C80"/>
<path d="M244.514 251.084L324.599 204.754C325.335 204.333 325.926 203.19 325.926 202.218V200.904C325.926 199.931 325.335 199.471 324.599 199.905L244.514 246.235C243.778 246.655 243.187 247.799 243.187 248.771V250.085C243.187 251.057 243.778 251.517 244.514 251.084Z" fill="#6DE0F6"/>
<path d="M322.852 203.755C323.587 203.334 324.179 202.191 324.179 201.219V200.155L324.599 199.905C325.335 199.485 325.926 199.931 325.926 200.904V202.218C325.926 203.19 325.335 204.333 324.599 204.754L244.514 251.084C243.778 251.504 243.187 251.057 243.187 250.085V249.835L322.852 203.755Z" fill="#133C80"/>
<path d="M244.514 265.169L324.599 218.839C325.335 218.419 325.926 217.275 325.926 216.303V214.989C325.926 214.017 325.335 213.557 324.599 213.991L244.514 260.321C243.778 260.741 243.187 261.884 243.187 262.857V264.171C243.187 265.143 243.778 265.603 244.514 265.169Z" fill="#6DE0F6"/>
<path d="M322.852 217.854C323.587 217.433 324.179 216.29 324.179 215.318V214.253L324.599 214.004C325.335 213.583 325.926 214.03 325.926 215.002V216.316C325.926 217.289 325.335 218.432 324.599 218.852L244.514 265.182C243.778 265.603 243.187 265.156 243.187 264.184V263.934L322.852 217.854Z" fill="#133C80"/>
<path d="M244.514 279.268L324.599 232.938C325.335 232.517 325.926 231.374 325.926 230.402V229.088C325.926 228.116 325.335 227.656 324.599 228.089L244.514 274.419C243.778 274.84 243.187 275.983 243.187 276.955V278.269C243.187 279.242 243.778 279.701 244.514 279.268Z" fill="#6DE0F6"/>
<path d="M322.852 231.939C323.587 231.519 324.179 230.376 324.179 229.403V228.339L324.599 228.089C325.335 227.669 325.926 228.116 325.926 229.088V230.402C325.926 231.374 325.335 232.517 324.599 232.938L244.514 279.268C243.778 279.688 243.187 279.241 243.187 278.269V278.02L322.852 231.939Z" fill="#133C80"/>
<path d="M244.514 293.367L324.599 247.037C325.335 246.616 325.926 245.473 325.926 244.501V243.187C325.926 242.214 325.335 241.754 324.599 242.188L244.514 288.518C243.778 288.939 243.187 290.082 243.187 291.054V292.368C243.187 293.34 243.778 293.8 244.514 293.367Z" fill="#6DE0F6"/>
<path d="M322.852 246.038C323.587 245.617 324.179 244.474 324.179 243.502V242.438L324.599 242.188C325.335 241.768 325.926 242.214 325.926 243.187V244.501C325.926 245.473 325.335 246.616 324.599 247.037L244.514 293.367C243.778 293.787 243.187 293.34 243.187 292.368V292.118L322.852 246.038Z" fill="#133C80"/>
<path d="M244.514 307.452L324.599 261.122C325.335 260.702 325.926 259.559 325.926 258.586V257.272C325.926 256.3 325.335 255.853 324.599 256.274L244.514 302.604C243.778 303.024 243.187 304.167 243.187 305.14V306.454C243.187 307.426 243.778 307.886 244.514 307.452Z" fill="#6DE0F6"/>
<path d="M322.852 260.137C323.587 259.716 324.179 258.573 324.179 257.601V256.536L324.599 256.287C325.335 255.866 325.926 256.313 325.926 257.285V258.599C325.926 259.572 325.335 260.715 324.599 261.135L244.514 307.465C243.778 307.886 243.187 307.439 243.187 306.467V306.217L322.852 260.137Z" fill="#133C80"/>
<path d="M244.514 321.551L324.599 275.221C325.335 274.8 325.926 273.657 325.926 272.685V271.371C325.926 270.399 325.335 269.939 324.599 270.372L244.514 316.702C243.778 317.123 243.187 318.266 243.187 319.238V320.552C243.187 321.525 243.778 321.984 244.514 321.551Z" fill="#6DE0F6"/>
<path d="M322.852 274.222C323.587 273.802 324.179 272.659 324.179 271.686V270.622L324.599 270.372C325.335 269.952 325.926 270.399 325.926 271.371V272.685C325.926 273.657 325.335 274.8 324.599 275.221L244.514 321.551C243.778 321.971 243.187 321.525 243.187 320.552V320.303L322.852 274.222Z" fill="#133C80"/>
<path d="M227.734 213.242C228.925 213.242 229.889 212.277 229.889 211.087C229.889 209.897 228.925 208.932 227.734 208.932C226.544 208.932 225.579 209.897 225.579 211.087C225.579 212.277 226.544 213.242 227.734 213.242Z" fill="#6DE0F6"/>
<path d="M227.734 212.427C226.683 212.427 225.816 211.678 225.619 210.679C225.593 210.811 225.58 210.942 225.58 211.087C225.58 212.269 226.539 213.242 227.734 213.242C228.93 213.242 229.889 212.282 229.889 211.087C229.889 210.942 229.876 210.811 229.85 210.679C229.666 211.678 228.786 212.427 227.748 212.427H227.734Z" fill="#133C80"/>
<path d="M227.734 227.34C228.925 227.34 229.889 226.376 229.889 225.186C229.889 223.995 228.925 223.031 227.734 223.031C226.544 223.031 225.58 223.995 225.58 225.186C225.58 226.376 226.544 227.34 227.734 227.34Z" fill="#6DE0F6"/>
<path d="M227.734 226.526C226.683 226.526 225.816 225.777 225.619 224.778C225.593 224.91 225.58 225.041 225.58 225.186C225.58 226.368 226.539 227.34 227.734 227.34C228.93 227.34 229.889 226.381 229.889 225.186C229.889 225.041 229.876 224.91 229.85 224.778C229.666 225.777 228.786 226.526 227.748 226.526H227.734Z" fill="#133C80"/>
<path d="M227.734 241.426C228.925 241.426 229.889 240.461 229.889 239.271C229.889 238.081 228.925 237.116 227.734 237.116C226.544 237.116 225.58 238.081 225.58 239.271C225.58 240.461 226.544 241.426 227.734 241.426Z" fill="#6DE0F6"/>
<path d="M227.734 240.624C226.683 240.624 225.816 239.876 225.619 238.877C225.593 239.008 225.58 239.14 225.58 239.284C225.58 240.467 226.539 241.439 227.734 241.439C228.93 241.439 229.889 240.48 229.889 239.284C229.889 239.14 229.876 239.008 229.85 238.877C229.666 239.876 228.786 240.624 227.748 240.624H227.734Z" fill="#133C80"/>
<path d="M227.734 255.525C228.925 255.525 229.889 254.56 229.889 253.37C229.889 252.18 228.925 251.215 227.734 251.215C226.544 251.215 225.58 252.18 225.58 253.37C225.58 254.56 226.544 255.525 227.734 255.525Z" fill="#6DE0F6"/>
<path d="M227.734 254.71C226.683 254.71 225.816 253.961 225.619 252.963C225.593 253.094 225.58 253.225 225.58 253.37C225.58 254.552 226.539 255.525 227.734 255.525C228.93 255.525 229.889 254.566 229.889 253.37C229.889 253.225 229.876 253.094 229.85 252.963C229.666 253.961 228.786 254.71 227.748 254.71H227.734Z" fill="#133C80"/>
<path d="M227.734 269.623C228.925 269.623 229.889 268.659 229.889 267.469C229.889 266.278 228.925 265.314 227.734 265.314C226.544 265.314 225.58 266.278 225.58 267.469C225.58 268.659 226.544 269.623 227.734 269.623Z" fill="#6DE0F6"/>
<path d="M227.734 268.809C226.683 268.809 225.816 268.06 225.619 267.061C225.593 267.193 225.58 267.324 225.58 267.469C225.58 268.651 226.539 269.623 227.734 269.623C228.93 269.623 229.889 268.664 229.889 267.469C229.889 267.324 229.876 267.193 229.85 267.061C229.666 268.06 228.786 268.809 227.748 268.809H227.734Z" fill="#133C80"/>
<path d="M227.734 283.709C228.925 283.709 229.889 282.744 229.889 281.554C229.889 280.364 228.925 279.399 227.734 279.399C226.544 279.399 225.58 280.364 225.58 281.554C225.58 282.744 226.544 283.709 227.734 283.709Z" fill="#6DE0F6"/>
<path d="M227.734 282.908C226.683 282.908 225.816 282.159 225.619 281.16C225.593 281.291 225.58 281.423 225.58 281.567C225.58 282.75 226.539 283.722 227.734 283.722C228.93 283.722 229.889 282.763 229.889 281.567C229.889 281.423 229.876 281.291 229.85 281.16C229.666 282.159 228.786 282.908 227.748 282.908H227.734Z" fill="#133C80"/>
<path d="M227.734 297.808C228.925 297.808 229.889 296.843 229.889 295.653C229.889 294.463 228.925 293.498 227.734 293.498C226.544 293.498 225.58 294.463 225.58 295.653C225.58 296.843 226.544 297.808 227.734 297.808Z" fill="#6DE0F6"/>
<path d="M227.734 296.993C226.683 296.993 225.816 296.244 225.619 295.246C225.593 295.377 225.58 295.508 225.58 295.653C225.58 296.835 226.539 297.808 227.734 297.808C228.93 297.808 229.889 296.849 229.889 295.653C229.889 295.508 229.876 295.377 229.85 295.246C229.666 296.244 228.786 296.993 227.748 296.993H227.734Z" fill="#133C80"/>
<path d="M227.734 311.906C228.925 311.906 229.889 310.942 229.889 309.752C229.889 308.561 228.925 307.597 227.734 307.597C226.544 307.597 225.58 308.561 225.58 309.752C225.58 310.942 226.544 311.906 227.734 311.906Z" fill="#6DE0F6"/>
<path d="M227.734 311.092C226.683 311.092 225.816 310.343 225.619 309.344C225.593 309.476 225.58 309.607 225.58 309.752C225.58 310.934 226.539 311.906 227.734 311.906C228.93 311.906 229.889 310.947 229.889 309.752C229.889 309.607 229.876 309.476 229.85 309.344C229.666 310.343 228.786 311.092 227.748 311.092H227.734Z" fill="#133C80"/>
<path d="M227.734 326.005C228.925 326.005 229.889 325.04 229.889 323.85C229.889 322.66 228.925 321.695 227.734 321.695C226.544 321.695 225.58 322.66 225.58 323.85C225.58 325.04 226.544 326.005 227.734 326.005Z" fill="#6DE0F6"/>
<path d="M227.734 325.191C226.683 325.191 225.816 324.442 225.619 323.443C225.593 323.574 225.58 323.706 225.58 323.85C225.58 325.033 226.539 326.005 227.734 326.005C228.93 326.005 229.889 325.046 229.889 323.85C229.889 323.706 229.876 323.574 229.85 323.443C229.666 324.442 228.786 325.191 227.748 325.191H227.734Z" fill="#133C80"/>
<path d="M197.001 303.234C196.568 303.234 196.108 303.103 195.648 302.827L192.442 300.974C190.694 299.963 189.275 297.269 189.275 294.956V208.446C189.275 207.171 189.709 206.173 190.471 205.739C191.115 205.358 191.929 205.424 192.757 205.897L195.963 207.749C197.711 208.761 199.13 211.455 199.13 213.767V300.278C199.13 301.553 198.696 302.551 197.934 302.985C197.645 303.142 197.33 303.234 197.001 303.234ZM191.417 206.159C191.194 206.159 190.983 206.212 190.812 206.317C190.261 206.633 189.945 207.421 189.945 208.459V294.97C189.945 297.072 191.22 299.516 192.783 300.423L195.989 302.275C196.607 302.63 197.185 302.683 197.632 302.433C198.184 302.118 198.499 301.329 198.499 300.291V213.78C198.499 211.678 197.225 209.234 195.661 208.328L192.455 206.475C192.087 206.265 191.745 206.159 191.43 206.159H191.417Z" fill="#9B3630"/>
<path d="M143.641 272.895C143.208 272.895 142.748 272.764 142.288 272.488L139.082 270.635C137.334 269.623 135.915 266.93 135.915 264.617V178.107C135.915 176.832 136.349 175.833 137.111 175.4C137.755 175.019 138.569 175.084 139.397 175.557L142.603 177.41C144.351 178.422 145.77 181.115 145.77 183.428V269.939C145.77 271.213 145.336 272.212 144.574 272.645C144.285 272.803 143.983 272.895 143.641 272.895ZM139.41 270.07L142.616 271.923C143.234 272.278 143.812 272.33 144.259 272.08C144.811 271.765 145.126 270.977 145.126 269.939V183.428C145.126 181.326 143.852 178.882 142.288 177.975L139.082 176.122C138.464 175.768 137.886 175.715 137.439 175.965C136.888 176.28 136.559 177.068 136.559 178.107V264.617C136.559 266.72 137.834 269.164 139.397 270.07H139.41Z" fill="#9B3630"/>
<path d="M170.328 288.058C169.894 288.058 169.434 287.927 168.974 287.651L165.768 285.798C164.021 284.786 162.602 282.093 162.602 279.78V193.27C162.602 191.995 163.035 190.996 163.797 190.563C164.441 190.182 165.256 190.247 166.084 190.72L169.29 192.573C171.037 193.585 172.456 196.279 172.456 198.591V285.102C172.456 286.376 172.023 287.375 171.261 287.809C170.972 287.966 170.656 288.058 170.328 288.058ZM164.743 190.983C164.52 190.983 164.31 191.036 164.139 191.141C163.587 191.456 163.259 192.245 163.259 193.283V279.793C163.259 281.896 164.533 284.34 166.097 285.246L169.303 287.099C169.92 287.454 170.499 287.506 170.945 287.257C171.497 286.941 171.826 286.153 171.826 285.115V198.604C171.826 196.502 170.551 194.058 168.988 193.151L165.782 191.299C165.414 191.088 165.072 190.983 164.757 190.983H164.743Z" fill="#9B3630"/>
<path opacity="0.5" d="M312.55 117.888L309.528 134.365L325.243 125.338L312.55 117.888Z" fill="#13113D"/>
<path d="M229.994 38.2888L226.328 40.4174L229.994 44.5957V75.5919C229.994 82.3588 234.107 90.2294 239.192 93.1595L306.664 132.105C306.729 132.144 306.808 132.171 306.874 132.21L309.055 134.694L312.484 132.696C312.484 132.696 312.576 132.644 312.629 132.617L312.957 132.434C314.757 131.225 315.874 128.702 315.874 125.167V87.8642L230.021 38.3019L229.994 38.2888Z" fill="url(#paint5_linear_71_1615)"/>
<path d="M226.329 40.4174L312.182 89.9797V127.283C312.182 134.05 308.07 137.164 302.985 134.234L235.513 95.2881C230.441 92.3579 226.315 84.5005 226.315 77.7205V40.4174H226.329Z" fill="#6DE0F6"/>
<path opacity="0.5" d="M224.305 185.465L207.868 195.03L134.102 152.445L149.383 143.668L224.305 185.465Z" fill="#38025B"/>
<path d="M146.387 88.6L142.721 90.7286L146.387 94.907V125.903C146.387 132.67 150.5 140.541 155.585 143.471L223.057 182.416C223.122 182.456 223.201 182.482 223.267 182.521L225.448 185.005L228.877 183.008C228.877 183.008 228.969 182.955 229.022 182.929L229.35 182.745C231.151 181.536 232.267 179.013 232.267 175.479V138.176L146.414 88.6132L146.387 88.6Z" fill="url(#paint6_linear_71_1615)"/>
<path d="M142.708 90.7286L228.562 140.291V177.594C228.562 184.361 224.45 187.475 219.365 184.545L151.893 145.599C146.821 142.669 142.695 134.812 142.695 128.032V90.7286H142.708Z" fill="url(#paint7_linear_71_1615)"/>
<g style="mix-blend-mode:lighten">
<path d="M2.81194 167.398C3.87869 167.398 4.74346 166.533 4.74346 165.466C4.74346 164.4 3.87869 163.535 2.81194 163.535C1.7452 163.535 0.880432 164.4 0.880432 165.466C0.880432 166.533 1.7452 167.398 2.81194 167.398Z" fill="#FF6A06"/>
</g>
</g>
<defs>
<linearGradient id="paint0_linear_71_1615" x1="52.7336" y1="261.514" x2="9.03778" y2="305.21" gradientUnits="userSpaceOnUse">
<stop stop-color="#FF6A06"/>
<stop offset="0.0001" stop-color="#FF6506"/>
<stop offset="0.91" stop-color="#133C80"/>
<stop offset="1" stop-color="#133C80"/>
</linearGradient>
<linearGradient id="paint1_linear_71_1615" x1="83.6725" y1="65.0803" x2="58.0767" y2="65.0803" gradientUnits="userSpaceOnUse">
<stop stop-color="#6EE8FC"/>
<stop offset="0.16" stop-color="#69E1FA"/>
<stop offset="0.37" stop-color="#5ED0F6"/>
<stop offset="0.61" stop-color="#4AB4F0"/>
<stop offset="0.87" stop-color="#308EE8"/>
<stop offset="0.96" stop-color="#267FE5"/>
</linearGradient>
<linearGradient id="paint2_linear_71_1615" x1="414.134" y1="178.182" x2="465.651" y2="203.777" gradientUnits="userSpaceOnUse">
<stop stop-color="#6EE8FC"/>
<stop offset="0.16" stop-color="#69E1FA"/>
<stop offset="0.37" stop-color="#5ED0F6"/>
<stop offset="0.61" stop-color="#4AB4F0"/>
<stop offset="0.87" stop-color="#308EE8"/>
<stop offset="0.96" stop-color="#267FE5"/>
</linearGradient>
<linearGradient id="paint3_linear_71_1615" x1="84.7764" y1="295.653" x2="370.693" y2="295.653" gradientUnits="userSpaceOnUse">
<stop stop-color="#D4088C"/>
<stop offset="0.23" stop-color="#8D139B"/>
<stop offset="0.51" stop-color="#6EE1F8"/>
<stop offset="0.78" stop-color="#6EE8FC"/>
<stop offset="1" stop-color="#6EE8FC"/>
</linearGradient>
<linearGradient id="paint4_linear_71_1615" x1="95.2617" y1="219.286" x2="366.725" y2="219.286" gradientUnits="userSpaceOnUse">
<stop stop-color="#FF6A06"/>
<stop offset="0.07" stop-color="#133C80"/>
<stop offset="0.15" stop-color="#133C80"/>
<stop offset="0.24" stop-color="#133C80"/>
<stop offset="0.34" stop-color="#133C80"/>
<stop offset="0.48" stop-color="#133C80"/>
<stop offset="0.63" stop-color="#4D21A3"/>
<stop offset="0.94" stop-color="#3167D9"/>
<stop offset="1" stop-color="#2C75E4"/>
</linearGradient>
<linearGradient id="paint5_linear_71_1615" x1="131.29" y1="54.7132" x2="316.111" y2="97.2064" gradientUnits="userSpaceOnUse">
<stop stop-color="#FF6506"/>
<stop offset="0.17" stop-color="#FF6506"/>
<stop offset="0.43" stop-color="#FF6506"/>
<stop offset="0.76" stop-color="#4958CC"/>
<stop offset="1" stop-color="#2979E4"/>
</linearGradient>
<linearGradient id="paint6_linear_71_1615" x1="47.6832" y1="105.024" x2="232.504" y2="147.518" gradientUnits="userSpaceOnUse">
<stop stop-color="#FF6506"/>
<stop offset="0.17" stop-color="#FF6506"/>
<stop offset="0.43" stop-color="#FF6506"/>
<stop offset="0.76" stop-color="#4958CC"/>
<stop offset="1" stop-color="#2979E4"/>
</linearGradient>
<linearGradient id="paint7_linear_71_1615" x1="-268.406" y1="-90.6948" x2="-55.3415" y2="-66.7564" gradientUnits="userSpaceOnUse">
<stop stop-color="#FF6A06"/>
<stop offset="0.17" stop-color="#FF6506"/>
<stop offset="0.43" stop-color="#FF6506"/>
<stop offset="0.76" stop-color="#4958CC"/>
<stop offset="1" stop-color="#2979E4"/>
</linearGradient>
<clipPath id="clip0_71_1615">
<rect width="460.37" height="387.682" fill="white"/>
</clipPath>
</defs>
</svg>
