<svg width="467" height="510" viewBox="0 0 467 510" fill="none" xmlns="http://www.w3.org/2000/svg">
<g clip-path="url(#clip0_71_1758)">
<path style="mix-blend-mode:lighten" d="M156.175 509.11C153.812 509.11 151.533 508.624 149.807 507.619L2.78166 422.745C0.988661 421.706 0 420.231 0 418.589C0 416.679 1.37407 414.785 3.77032 413.394L302.698 240.814C307.038 238.301 313.406 238.066 317.209 240.245L464.218 325.119C466.011 326.158 467 327.632 467 329.274C467 331.185 465.626 333.078 463.23 334.469L164.302 507.049C161.939 508.406 158.99 509.11 156.158 509.11H156.175ZM310.842 240.429C308.311 240.429 305.614 241.049 303.519 242.255L4.60817 414.852C2.74814 415.925 1.6757 417.282 1.6757 418.589C1.6757 419.628 2.34598 420.55 3.61951 421.287L150.628 506.161C153.896 508.054 159.644 507.786 163.464 505.591L462.392 333.011C464.252 331.939 465.324 330.565 465.324 329.274C465.324 328.235 464.654 327.314 463.38 326.576L316.372 241.702C314.897 240.848 312.936 240.446 310.859 240.446L310.842 240.429Z" fill="#FF6A06"/>
<path style="mix-blend-mode:lighten" d="M156.175 493.576C153.812 493.576 151.533 493.09 149.807 492.085L2.78166 407.211C0.988661 406.172 0 404.697 0 403.055C0 401.145 1.37407 399.251 3.77032 397.861L302.698 225.281C307.038 222.767 313.406 222.532 317.209 224.711L464.218 309.585C466.011 310.624 467 312.098 467 313.741C467 315.651 465.626 317.544 463.23 318.935L164.302 491.515C161.939 492.873 158.99 493.576 156.158 493.576H156.175ZM150.645 490.627C153.913 492.504 159.66 492.253 163.481 490.057L462.409 317.477C464.269 316.405 465.341 315.048 465.341 313.741C465.341 312.702 464.671 311.78 463.397 311.043L316.388 226.169C313.121 224.292 307.356 224.543 303.552 226.738L4.60817 399.318C2.74814 400.391 1.6757 401.765 1.6757 403.055C1.6757 404.094 2.34598 405.016 3.61951 405.753L150.628 490.627H150.645Z" fill="url(#paint0_linear_71_1758)"/>
<path d="M466.162 287.7L458.672 292.208L316.791 210.283C313.289 208.256 307.172 208.507 303.117 210.853L8.8982 380.702L0.854858 377.099V388.058C0.921886 389.281 1.69271 390.437 3.21759 391.309L150.226 476.183C153.729 478.21 159.845 477.959 163.9 475.613L462.828 303.033C465.107 301.726 466.246 300.017 466.179 298.442V287.684L466.162 287.7Z" fill="#FF6A06"/>
<path d="M8.8982 380.701L0.854858 377.099V388.058C0.921886 389.281 1.69271 390.437 3.21759 391.309L3.53597 391.493C3.10029 390.923 2.86569 390.286 2.83218 389.65V378.691L10.8755 382.293L22.2368 375.725C21.7173 375.105 21.1811 374.501 20.6281 373.915L8.8982 380.685V380.701Z" fill="#FF6A06"/>
<path d="M458.672 292.191L389.03 251.974C388.326 252.427 387.622 252.879 386.919 253.349L456.778 293.683L464.269 289.175V299.933C464.319 300.938 463.867 301.977 462.978 302.949C465.14 301.642 466.229 300 466.162 298.442V287.684L458.672 292.191Z" fill="#6EE8FC"/>
<path d="M150.226 465.358L3.20076 380.467C-0.301443 378.439 0.134237 374.904 4.18942 372.574L303.117 199.994C307.155 197.665 313.288 197.397 316.791 199.425L463.8 284.299C467.302 286.326 466.866 289.862 462.811 292.191L163.883 464.771C159.845 467.1 153.712 467.369 150.21 465.341L150.226 465.358Z" fill="#FF6506"/>
<path d="M150.226 465.358L3.20076 380.467C-0.301443 378.439 0.134237 374.904 4.18942 372.574L303.117 199.994C307.155 197.665 313.288 197.397 316.791 199.425L463.8 284.299C467.302 286.326 466.866 289.862 462.811 292.191L163.883 464.771C159.845 467.1 153.712 467.369 150.21 465.341L150.226 465.358Z" fill="#FF6506"/>
<path d="M152.254 465.358L5.24515 380.467C1.74295 378.439 2.17863 374.903 6.23381 372.574L305.161 199.994C307.122 198.871 309.552 198.235 311.948 198.101C308.965 197.9 305.647 198.536 303.134 199.994L4.18946 372.574C0.151033 374.903 -0.301405 378.439 3.2008 380.467L150.21 465.341C152.019 466.38 154.533 466.815 157.097 466.665C155.27 466.547 153.561 466.112 152.237 465.341L152.254 465.358Z" fill="#FF6A06"/>
<path d="M463.8 284.315L316.791 199.441C314.981 198.402 312.468 197.967 309.904 198.118C311.747 198.235 313.473 198.671 314.814 199.441L461.822 284.315C465.325 286.343 464.889 289.879 460.834 292.208L161.906 464.788C159.946 465.911 157.516 466.547 155.12 466.682C158.086 466.866 161.387 466.229 163.867 464.788L462.794 292.208C466.833 289.879 467.285 286.343 463.783 284.315H463.8Z" fill="#6EE8FC"/>
<path d="M166.984 460.13L12.2329 370.798L298.207 205.692L452.958 295.023L166.984 460.13Z" fill="url(#paint1_radial_71_1758)"/>
<path d="M389.952 251.69L373.262 242.054C372.625 241.686 372.709 241.049 373.446 240.63C374.167 240.211 375.273 240.161 375.909 240.529L392.599 250.165C393.236 250.533 393.152 251.17 392.415 251.589C391.695 252.008 390.589 252.058 389.952 251.69Z" fill="url(#paint2_radial_71_1758)"/>
<path d="M83.6343 434.424L71.7872 427.638C71.0498 427.219 70.4466 426.079 70.4466 425.091C70.4466 424.102 71.0498 423.65 71.7872 424.085L83.6343 430.872C84.3716 431.291 84.9749 432.43 84.9749 433.419C84.9749 434.408 84.3716 434.86 83.6343 434.424Z" fill="#FF6506"/>
<path d="M285.824 371.284L267.492 381.874C265.967 382.763 263.638 382.846 262.314 382.092L257.488 379.311C256.164 378.54 256.332 377.199 257.856 376.328L276.189 365.737C277.713 364.849 280.043 364.766 281.366 365.52L286.192 368.301C287.516 369.072 287.349 370.413 285.824 371.284Z" fill="#6EE1F8"/>
<path d="M321.131 350.908L302.799 361.498C301.274 362.386 298.945 362.47 297.621 361.716L292.795 358.934C291.471 358.163 291.639 356.823 293.163 355.951L311.496 345.361C313.02 344.473 315.35 344.372 316.673 345.143L321.5 347.925C322.823 348.696 322.656 350.036 321.131 350.908Z" fill="#FF6A06"/>
<path style="mix-blend-mode:lighten" opacity="0.4" d="M453.494 294.721L166.983 460.13L50.1704 280.78L336.681 115.372L453.494 294.721Z" fill="url(#paint3_linear_71_1758)"/>
<path style="mix-blend-mode:lighten" d="M113.931 457.582L112.356 457.029L133.738 396.218C137.893 384.371 146.842 373.932 155.974 370.212C160.364 368.419 164.47 368.352 167.804 370.011L173.971 373.077C176.769 374.468 180.255 374.434 184.042 372.977C192.42 369.759 200.665 360.593 205.055 349.584C210.099 336.932 220.237 326.593 229.721 324.448L240.614 321.985C250.064 319.84 260.202 308.965 264.744 296.129L285.103 238.368C290.817 222.164 304.793 209.713 315.618 211.138L327.214 212.679C337.1 214.003 350.506 201.821 355.901 186.639L391.426 86.5161L393.001 87.0691L357.477 187.192C351.746 203.346 337.737 215.779 326.996 214.338L315.4 212.797C305.446 211.439 292.057 223.689 286.695 238.921L266.335 296.682C261.627 310.037 250.969 321.365 240.999 323.627L230.107 326.091C221.125 328.118 211.473 338.038 206.63 350.221C202.089 361.632 193.459 371.184 184.662 374.552C180.422 376.177 176.468 376.194 173.251 374.585L167.084 371.519C164.185 370.078 160.565 370.161 156.628 371.77C147.914 375.322 139.351 385.36 135.346 396.771L113.964 457.582H113.931Z" fill="url(#paint4_linear_71_1758)"/>
<path opacity="0.4" d="M309.083 238.686L71.0164 376.144V361.129C71.0164 356.689 74.1332 351.293 77.9873 349.064L92.415 340.736C96.2691 338.507 99.3859 333.112 99.3859 328.671V302.329C99.3859 297.889 102.503 292.493 106.357 290.264L122.393 281.014C126.247 278.786 129.364 280.595 129.364 285.036V298.006C129.364 302.446 132.481 304.256 136.335 302.028L149.171 294.621C153.025 292.392 156.142 286.996 156.142 282.556V224.845C156.142 220.404 159.259 215.009 163.113 212.78L175.546 205.608C179.4 203.379 182.517 197.983 182.517 193.543V178.495C182.517 174.055 185.634 168.659 189.488 166.43L204.318 157.867C208.172 155.639 211.289 157.448 211.289 161.889V167.201C211.289 171.642 214.406 173.451 218.26 171.223L230.291 164.268C234.145 162.04 237.262 163.85 237.262 168.29C237.262 172.731 240.379 174.54 244.233 172.312L255.075 166.061C258.929 163.833 262.046 158.437 262.046 153.996V89.4653C262.046 85.0247 265.163 79.629 269.017 77.4003L279.456 71.3678C283.31 69.1391 286.427 63.7434 286.427 59.3028V28.8051C286.427 24.3645 289.544 18.9688 293.398 16.7401L302.229 11.6292C306.083 9.40055 309.2 11.2103 309.2 15.6509V238.686H309.083Z" fill="#2142A1"/>
<path d="M201.469 157.817H195.486C194.9 157.817 194.431 157.348 194.431 156.761C194.431 156.175 194.9 155.706 195.486 155.706H201.469C202.055 155.706 202.524 156.175 202.524 156.761C202.524 157.348 202.055 157.817 201.469 157.817Z" fill="white"/>
<path d="M209.244 157.817H206.429C205.842 157.817 205.373 157.348 205.373 156.761C205.373 156.175 205.842 155.706 206.429 155.706H209.244C209.831 155.706 210.3 156.175 210.3 156.761C210.3 157.348 209.831 157.817 209.244 157.817Z" fill="white"/>
<path d="M198.101 161.688H195.486C194.9 161.688 194.431 161.219 194.431 160.632C194.431 160.046 194.9 159.576 195.486 159.576H198.101C198.687 159.576 199.156 160.046 199.156 160.632C199.156 161.219 198.687 161.688 198.101 161.688Z" fill="white"/>
<path d="M205.876 161.688H203.061C202.474 161.688 202.005 161.219 202.005 160.632C202.005 160.046 202.474 159.576 203.061 159.576H205.876C206.462 159.576 206.932 160.046 206.932 160.632C206.932 161.219 206.462 161.688 205.876 161.688Z" fill="white"/>
<path d="M205.373 165.542H195.47C194.883 165.542 194.414 165.073 194.414 164.486C194.414 163.9 194.883 163.431 195.47 163.431H205.373C205.96 163.431 206.429 163.9 206.429 164.486C206.429 165.073 205.96 165.542 205.373 165.542Z" fill="white"/>
<path d="M213.165 165.542H210.35C209.764 165.542 209.294 165.073 209.294 164.486C209.294 163.9 209.764 163.431 210.35 163.431H213.165C213.752 163.431 214.221 163.9 214.221 164.486C214.221 165.073 213.752 165.542 213.165 165.542Z" fill="white"/>
<path d="M109.624 302.547H99.7206C99.1341 302.547 98.6649 302.078 98.6649 301.491C98.6649 300.905 99.1341 300.436 99.7206 300.436H109.624C110.21 300.436 110.68 300.905 110.68 301.491C110.68 302.078 110.21 302.547 109.624 302.547Z" fill="white"/>
<path d="M117.399 302.547H114.584C113.998 302.547 113.529 302.078 113.529 301.491C113.529 300.905 113.998 300.436 114.584 300.436H117.399C117.986 300.436 118.455 300.905 118.455 301.491C118.455 302.078 117.986 302.547 117.399 302.547Z" fill="white"/>
<path d="M106.256 306.401H99.7207C99.1342 306.401 98.665 305.932 98.665 305.345C98.665 304.759 99.1342 304.29 99.7207 304.29H106.256C106.842 304.29 107.312 304.759 107.312 305.345C107.312 305.932 106.842 306.401 106.256 306.401Z" fill="white"/>
<path d="M114.048 306.401H111.233C110.646 306.401 110.177 305.932 110.177 305.345C110.177 304.759 110.646 304.29 111.233 304.29H114.048C114.635 304.29 115.104 304.759 115.104 305.345C115.104 305.932 114.635 306.401 114.048 306.401Z" fill="white"/>
<path d="M279.942 58.0795H273.943C273.356 58.0795 272.887 57.6103 272.887 57.0238C272.887 56.4373 273.356 55.9682 273.943 55.9682H279.942C280.528 55.9682 280.997 56.4373 280.997 57.0238C280.997 57.6103 280.528 58.0795 279.942 58.0795Z" fill="white"/>
<path d="M287.751 58.0795H284.935C284.349 58.0795 283.88 57.6103 283.88 57.0238C283.88 56.4373 284.349 55.9682 284.935 55.9682H287.751C288.337 55.9682 288.806 56.4373 288.806 57.0238C288.806 57.6103 288.337 58.0795 287.751 58.0795Z" fill="white"/>
<path d="M277.345 62.1682H273.96C273.373 62.1682 272.904 61.699 272.904 61.1126C272.904 60.5261 273.373 60.0569 273.96 60.0569H277.345C277.931 60.0569 278.4 60.5261 278.4 61.1126C278.4 61.699 277.931 62.1682 277.345 62.1682Z" fill="white"/>
<path d="M286.209 62.1682H282.338C281.752 62.1682 281.282 61.699 281.282 61.1126C281.282 60.5261 281.752 60.0569 282.338 60.0569H286.209C286.795 60.0569 287.265 60.5261 287.265 61.1126C287.265 61.699 286.795 62.1682 286.209 62.1682Z" fill="white"/>
<path d="M295.509 58.0795H292.694C292.107 58.0795 291.638 57.6103 291.638 57.0238C291.638 56.4373 292.107 55.9682 292.694 55.9682H295.509C296.095 55.9682 296.565 56.4373 296.565 57.0238C296.565 57.6103 296.095 58.0795 295.509 58.0795Z" fill="white"/>
</g>
<defs>
<linearGradient id="paint0_linear_71_1758" x1="0" y1="358.398" x2="467" y2="358.398" gradientUnits="userSpaceOnUse">
<stop stop-color="#071033"/>
<stop offset="0.1" stop-color="#244C6B"/>
<stop offset="0.21" stop-color="#3F839E"/>
<stop offset="0.3" stop-color="#54AEC6"/>
<stop offset="0.39" stop-color="#63CEE3"/>
<stop offset="0.46" stop-color="#6CE1F5"/>
<stop offset="0.52" stop-color="#70E8FC"/>
<stop offset="0.57" stop-color="#69DBF0"/>
<stop offset="0.66" stop-color="#59B9D0"/>
<stop offset="0.78" stop-color="#3E829D"/>
<stop offset="0.93" stop-color="#1A3757"/>
<stop offset="1" stop-color="#071033"/>
</linearGradient>
<radialGradient id="paint1_radial_71_1758" cx="0" cy="0" r="1" gradientUnits="userSpaceOnUse" gradientTransform="translate(1275.62 939.735) rotate(30) scale(419.88 419.88)">
<stop offset="0.01" stop-color="#2C35A2"/>
<stop offset="0.16" stop-color="#242C88"/>
<stop offset="0.4" stop-color="#1B2166"/>
<stop offset="0.62" stop-color="#14194E"/>
<stop offset="0.83" stop-color="#101440"/>
<stop offset="1" stop-color="#0F133B"/>
</radialGradient>
<radialGradient id="paint2_radial_71_1758" cx="0" cy="0" r="1" gradientUnits="userSpaceOnUse" gradientTransform="translate(2501.63 1494.73) rotate(30) scale(54.5439 47.4532)">
<stop offset="0.01" stop-color="#2C35A2"/>
<stop offset="0.16" stop-color="#242C88"/>
<stop offset="0.4" stop-color="#1B2166"/>
<stop offset="0.62" stop-color="#14194E"/>
<stop offset="0.83" stop-color="#101440"/>
<stop offset="1" stop-color="#0F133B"/>
</radialGradient>
<linearGradient id="paint3_linear_71_1758" x1="299.179" y1="367.229" x2="195.688" y2="193.509" gradientUnits="userSpaceOnUse">
<stop stop-color="#2C75E4"/>
<stop offset="1" stop-color="#0C0F38"/>
</linearGradient>
<linearGradient id="paint4_linear_71_1758" x1="112.356" y1="272.033" x2="392.985" y2="272.033" gradientUnits="userSpaceOnUse">
<stop stop-color="#071033"/>
<stop offset="0.1" stop-color="#244C6B"/>
<stop offset="0.21" stop-color="#3F839E"/>
<stop offset="0.3" stop-color="#54AEC6"/>
<stop offset="0.39" stop-color="#63CEE3"/>
<stop offset="0.46" stop-color="#6CE1F5"/>
<stop offset="0.52" stop-color="#70E8FC"/>
<stop offset="0.57" stop-color="#69DBF0"/>
<stop offset="0.66" stop-color="#59B9D0"/>
<stop offset="0.78" stop-color="#3E829D"/>
<stop offset="0.93" stop-color="#1A3757"/>
<stop offset="1" stop-color="#071033"/>
</linearGradient>
<clipPath id="clip0_71_1758">
<rect width="467" height="509.11" fill="white"/>
</clipPath>
</defs>
</svg>
