<svg width="34" height="34" viewBox="0 0 34 34" fill="none" xmlns="http://www.w3.org/2000/svg">
<path d="M15.7591 29.4108H13.8375C8.92379 29.4108 6.46763 29.4108 4.94076 27.8552C3.41388 26.2995 3.41388 23.7954 3.41388 18.7885C3.41388 13.7816 3.41388 11.2775 4.94076 9.72183C6.46763 8.16617 8.92379 8.16617 13.8375 8.16617H19.05C23.9637 8.16617 26.4212 8.16617 27.9481 9.72183C29.1227 10.9184 29.3927 12.6769 29.4557 15.7046" stroke="white" stroke-width="2.05594" stroke-linecap="round" stroke-linejoin="round"/>
<path d="M28.1086 28.0716L30.8266 30.7814M22.6028 8.16605L22.4658 7.74116C21.7873 5.6304 21.4488 4.57502 20.6415 3.97194C19.8328 3.36887 18.761 3.36887 16.6132 3.36887H16.2527C14.1077 3.36887 13.0345 3.36887 12.2272 3.97194C11.4185 4.57502 11.08 5.6304 10.4015 7.74116L10.2672 8.16605M29.5286 24.6492C29.5394 24.0076 29.4224 23.3703 29.1843 22.7744C28.9463 22.1785 28.5919 21.6359 28.142 21.1784C27.6921 20.7209 27.1556 20.3575 26.5638 20.1094C25.972 19.8613 25.3368 19.7336 24.6951 19.7336C24.0534 19.7336 23.4181 19.8613 22.8263 20.1094C22.2345 20.3575 21.698 20.7209 21.2481 21.1784C20.7982 21.6359 20.4439 22.1785 20.2059 22.7744C19.9678 23.3703 19.8508 24.0076 19.8616 24.6492C19.8829 25.917 20.4016 27.1257 21.3057 28.0147C22.2098 28.9038 23.4271 29.402 24.6951 29.402C25.9631 29.402 27.1803 28.9038 28.0845 28.0147C28.9886 27.1257 29.5072 25.917 29.5286 24.6492Z" stroke="white" stroke-width="2.05594" stroke-linecap="round" stroke-linejoin="round"/>
</svg>
