<svg width="36" height="35" viewBox="0 0 36 35" fill="none" xmlns="http://www.w3.org/2000/svg">
<path d="M16.519 30.277H14.499C9.33357 30.277 6.7516 30.277 5.14651 28.6417C3.54142 27.0063 3.54142 24.3739 3.54142 19.1105C3.54142 13.8472 3.54142 11.2148 5.14651 9.57944C6.7516 7.94409 9.33357 7.94409 14.499 7.94409H19.9784C25.1438 7.94409 27.7272 7.94409 29.3323 9.57944C30.5671 10.8373 30.851 12.6859 30.9173 15.8687" stroke="white" stroke-width="2.16125" stroke-linecap="round" stroke-linejoin="round"/>
<path d="M29.5011 28.8693L32.3582 31.7178M23.7132 7.94404L23.5692 7.49738C22.8559 5.2785 22.5001 4.16906 21.6514 3.53509C20.8013 2.90112 19.6746 2.90112 17.4168 2.90112H17.0379C14.7829 2.90112 13.6548 2.90112 12.8061 3.53509C11.956 4.16906 11.6001 5.2785 10.8869 7.49738L10.7457 7.94404M30.9938 25.2715C31.0051 24.597 30.8821 23.9271 30.6318 23.3007C30.3816 22.6742 30.0091 22.1039 29.5362 21.6229C29.0632 21.1419 28.4993 20.7599 27.8771 20.4992C27.255 20.2384 26.5872 20.1041 25.9127 20.1041C25.2381 20.1041 24.5703 20.2384 23.9482 20.4992C23.3261 20.7599 22.7621 21.1419 22.2892 21.6229C21.8162 22.1039 21.4437 22.6742 21.1935 23.3007C20.9432 23.9271 20.8202 24.597 20.8316 25.2715C20.854 26.6043 21.3992 27.8749 22.3497 28.8094C23.3001 29.744 24.5797 30.2678 25.9127 30.2678C27.2456 30.2678 28.5252 29.744 29.4757 28.8094C30.4261 27.8749 30.9713 26.6043 30.9938 25.2715Z" stroke="white" stroke-width="2.16125" stroke-linecap="round" stroke-linejoin="round"/>
</svg>
