<svg width="48" height="48" viewBox="0 0 48 48" fill="none" xmlns="http://www.w3.org/2000/svg">
<g clip-path="url(#clip0_105_5)">
<path d="M22.7379 10.1163L39.9729 16.827C40.4349 17.0193 40.7454 17.341 40.9043 17.7922C41.0631 18.2434 41.0228 18.6887 40.7832 19.128L31.5556 35.157C30.8759 36.1064 30.0239 36.4064 28.9996 36.0571C28.012 35.492 27.7419 34.725 28.1893 33.7561L35.1613 21.6402L9.60096 30.6408C8.46658 30.9388 7.6745 30.6092 7.22474 29.6519C6.97545 28.624 7.38621 27.8708 8.45704 27.3923L34.0174 18.3916L20.9922 13.3174C20.0363 12.8426 19.7662 12.0756 20.1819 11.0164C20.7614 10.1023 21.6134 9.80231 22.7379 10.1163Z" fill="#164494"/>
</g>
<defs>
<clipPath id="clip0_105_5">
<rect width="35.7066" height="37.6903" fill="white" transform="matrix(0.943229 -0.332143 -0.332143 -0.943229 13.4842 47.4275)"/>
</clipPath>
</defs>
</svg>
