<svg width="25" height="27" viewBox="0 0 25 27" fill="none" xmlns="http://www.w3.org/2000/svg">
<g clip-path="url(#clip0_71_1496)">
<path d="M14.8088 4.64848L24.2808 12.7879C24.532 13.014 24.6575 13.2886 24.6575 13.6116C24.6575 13.9346 24.532 14.2091 24.2808 14.4352L14.8088 22.5747C14.163 23.0269 13.5531 23.0269 12.979 22.5747C12.4767 21.9933 12.4767 21.4442 12.979 20.9274L20.1368 14.7744H1.83863C1.0493 14.7098 0.618755 14.3222 0.546997 13.6116C0.618755 12.901 1.0493 12.5134 1.83863 12.4488H20.1368L12.979 6.29575C12.4767 5.77896 12.4767 5.22987 12.979 4.64848C13.5531 4.19629 14.163 4.19629 14.8088 4.64848Z" fill="white"/>
</g>
<defs>
<clipPath id="clip0_71_1496">
<rect width="24.1105" height="25.45" fill="white" transform="matrix(1 0 0 -1 0.547058 26.3367)"/>
</clipPath>
</defs>
</svg>
