<svg width="30" height="31" viewBox="0 0 30 31" fill="none" xmlns="http://www.w3.org/2000/svg">
<g clip-path="url(#clip0_71_1466)">
<path fill-rule="evenodd" clip-rule="evenodd" d="M17.6698 27.3295L6.74984 22.7795V8.21948L17.6698 3.66948V27.3295ZM5.13914 25.0654C4.80762 24.9271 4.52443 24.6938 4.32525 24.3949C4.12607 24.0959 4.01981 23.7447 4.01984 23.3855V7.61342C4.01981 7.25421 4.12607 6.90302 4.32525 6.60409C4.52443 6.30516 4.80762 6.07186 5.13914 5.93356L16.6197 1.14878C17.0346 0.975868 17.4858 0.908088 17.9332 0.951458C18.3807 0.994828 18.8104 1.14801 19.1844 1.39739C19.5584 1.64678 19.865 1.98465 20.0771 2.38102C20.2891 2.77738 20.4 3.21997 20.3998 3.66948V4.57948H22.6748C24.433 4.57948 25.8598 6.00454 25.8598 7.76448V23.2345C25.8598 24.0792 25.5243 24.8893 24.927 25.4866C24.3297 26.0839 23.5196 26.4195 22.6748 26.4195H20.3998V27.3295C20.4 27.779 20.2891 28.2216 20.0771 28.6179C19.865 29.0143 19.5584 29.3522 19.1844 29.6016C18.8104 29.851 18.3807 30.0041 17.9332 30.0475C17.4858 30.0909 17.0346 30.0231 16.6197 29.8502L5.13914 25.0654ZM20.3998 23.6895H22.6748C22.7955 23.6895 22.9112 23.6415 22.9966 23.5562C23.0819 23.4709 23.1298 23.3552 23.1298 23.2345V7.76448C23.1298 7.64381 23.0819 7.52807 22.9966 7.44275C22.9112 7.35742 22.7955 7.30948 22.6748 7.30948H20.3998V23.6895Z" fill="white"/>
</g>
<defs>
<clipPath id="clip0_71_1466">
<rect width="29.12" height="29.12" fill="white" transform="translate(0.380005 0.939453)"/>
</clipPath>
</defs>
</svg>
