<svg width="38" height="38" viewBox="0 0 38 38" fill="none" xmlns="http://www.w3.org/2000/svg">
<path d="M33.8125 7.81081L19.5625 3.06081C19.1976 2.93762 18.8023 2.93762 18.4374 3.06081L4.18738 7.81081C3.84736 7.92342 3.54919 8.13593 3.33179 8.42059C3.11439 8.70525 2.98786 9.04884 2.96871 9.40651C2.96707 9.43766 2.96707 9.46887 2.96871 9.50002V21.375C2.96871 21.8474 3.15638 22.3005 3.49043 22.6346C3.82448 22.9686 4.27754 23.1563 4.74996 23.1563C5.22238 23.1563 5.67545 22.9686 6.0095 22.6346C6.34355 22.3005 6.53121 21.8474 6.53121 21.375V11.9715L10.0507 13.1442C8.9584 15.2349 8.63381 17.6424 9.1334 19.9478C9.63298 22.2531 10.9251 24.3103 12.7849 25.7614C10.3511 26.9615 8.29142 28.8036 6.82809 31.0888C6.69631 31.2846 6.60478 31.5047 6.55881 31.7363C6.51284 31.9678 6.51336 32.2062 6.56032 32.4375C6.60729 32.6689 6.69977 32.8886 6.83239 33.0839C6.96502 33.2791 7.13513 33.4461 7.33285 33.5751C7.53058 33.704 7.75196 33.7924 7.98414 33.8351C8.21631 33.8777 8.45465 33.8738 8.6853 33.8235C8.91594 33.7732 9.1343 33.6776 9.32767 33.5422C9.52104 33.4068 9.68556 33.2343 9.81168 33.0348C11.9299 29.7751 15.289 27.9063 19 27.9063C22.7109 27.9063 26.07 29.7751 28.1957 33.0348C28.3218 33.2343 28.4863 33.4068 28.6797 33.5422C28.873 33.6776 29.0914 33.7732 29.322 33.8235C29.5527 33.8738 29.791 33.8777 30.0232 33.8351C30.2554 33.7924 30.4768 33.704 30.6745 33.5751C30.8722 33.4461 31.0423 33.2791 31.175 33.0839C31.3076 32.8886 31.4001 32.6689 31.447 32.4375C31.494 32.2062 31.4945 31.9678 31.4485 31.7363C31.4026 31.5047 31.311 31.2846 31.1793 31.0888C29.7145 28.8009 27.6521 26.9571 25.215 25.7569C27.0748 24.3059 28.3669 22.2487 28.8665 19.9433C29.3661 17.638 29.0415 15.2304 27.9493 13.1397L33.8125 11.1848C34.1668 11.0663 34.4748 10.8394 34.693 10.5363C34.9112 10.2332 35.0286 9.86909 35.0286 9.49557C35.0286 9.12205 34.9112 8.75799 34.693 8.45485C34.4748 8.15172 34.1668 7.92486 33.8125 7.80635V7.81081ZM19 6.62331L27.6168 9.50002L19 12.3723L10.3906 9.50002L19 6.62331ZM25.5312 17.8125C25.5314 18.827 25.2953 19.8276 24.8415 20.7349C24.3878 21.6423 23.729 22.4314 22.9172 23.0399C22.1054 23.6483 21.1631 24.0593 20.1649 24.2403C19.1667 24.4212 18.1401 24.3671 17.1664 24.0823C16.1927 23.7975 15.2988 23.2899 14.5554 22.5995C13.8121 21.9092 13.2398 21.0551 12.8839 20.1051C12.5279 19.1552 12.3982 18.1353 12.505 17.1265C12.6117 16.1176 12.952 15.1475 13.4989 14.2931L18.4374 15.9392C18.8024 16.0619 19.1975 16.0619 19.5625 15.9392L24.5011 14.2931C25.1746 15.3432 25.5322 16.5649 25.5312 17.8125Z" fill="white"/>
</svg>
