<svg width="38" height="38" viewBox="0 0 38 38" fill="none" xmlns="http://www.w3.org/2000/svg">
<path d="M33.8125 7.81084L19.5625 3.06084C19.1975 2.93765 18.8023 2.93765 18.4373 3.06084L4.18732 7.81084C3.8473 7.92345 3.54913 8.13596 3.33173 8.42062C3.11433 8.70528 2.9878 9.04887 2.96865 9.40654C2.96701 9.43769 2.96701 9.4689 2.96865 9.50005V21.3751C2.96865 21.8475 3.15632 22.3005 3.49037 22.6346C3.82442 22.9686 4.27748 23.1563 4.7499 23.1563C5.22232 23.1563 5.67539 22.9686 6.00944 22.6346C6.34348 22.3005 6.53115 21.8475 6.53115 21.3751V11.9715L10.0506 13.1442C8.95834 15.2349 8.63375 17.6425 9.13334 19.9478C9.63292 22.2532 10.925 24.3104 12.7848 25.7614C10.3511 26.9615 8.29136 28.8036 6.82803 31.0888C6.69625 31.2847 6.60472 31.5048 6.55875 31.7363C6.51278 31.9678 6.5133 32.2062 6.56026 32.4376C6.60723 32.6689 6.69971 32.8886 6.83233 33.0839C6.96496 33.2792 7.13507 33.4461 7.33279 33.5751C7.53052 33.7041 7.7519 33.7924 7.98408 33.8351C8.21625 33.8777 8.45459 33.8738 8.68524 33.8235C8.91588 33.7733 9.13424 33.6777 9.32761 33.5423C9.52097 33.4069 9.6855 33.2344 9.81162 33.0348C11.9298 29.7751 15.289 27.9063 18.9999 27.9063C22.7108 27.9063 26.07 29.7751 28.1956 33.0348C28.3217 33.2344 28.4863 33.4069 28.6796 33.5423C28.873 33.6777 29.0913 33.7733 29.322 33.8235C29.5526 33.8738 29.791 33.8777 30.0231 33.8351C30.2553 33.7924 30.4767 33.7041 30.6744 33.5751C30.8722 33.4461 31.0423 33.2792 31.1749 33.0839C31.3075 32.8886 31.4 32.6689 31.447 32.4376C31.4939 32.2062 31.4944 31.9678 31.4485 31.7363C31.4025 31.5048 31.311 31.2847 31.1792 31.0888C29.7145 28.801 27.652 26.9572 25.215 25.7569C27.0748 24.3059 28.3669 22.2487 28.8665 19.9434C29.3661 17.638 29.0415 15.2305 27.9492 13.1397L33.8125 11.1848C34.1667 11.0663 34.4747 10.8395 34.6929 10.5363C34.9112 10.2332 35.0286 9.86912 35.0286 9.4956C35.0286 9.12208 34.9112 8.75802 34.6929 8.45488C34.4747 8.15175 34.1667 7.92489 33.8125 7.80638V7.81084ZM18.9999 6.62334L27.6167 9.50005L18.9999 12.3723L10.3905 9.50005L18.9999 6.62334ZM25.5312 17.8126C25.5313 18.827 25.2952 19.8276 24.8415 20.7349C24.3877 21.6423 23.7289 22.4315 22.9171 23.0399C22.1054 23.6484 21.1631 24.0594 20.1649 24.2403C19.1666 24.4212 18.14 24.3672 17.1663 24.0824C16.1927 23.7976 15.2987 23.2899 14.5554 22.5995C13.812 21.9092 13.2397 21.0552 12.8838 20.1052C12.5279 19.1552 12.3982 18.1353 12.5049 17.1265C12.6117 16.1177 12.952 15.1476 13.4988 14.2931L18.4373 15.9393C18.8024 16.0619 19.1975 16.0619 19.5625 15.9393L24.501 14.2931C25.1746 15.3433 25.5322 16.5649 25.5312 17.8126Z" fill="white"/>
</svg>
