<svg width="75" height="75" viewBox="0 0 75 75" fill="none" xmlns="http://www.w3.org/2000/svg">
<g clip-path="url(#clip0_71_893)">
<path d="M36.4188 0.543701V7.42808H30.2563V9.24058H36.4188V16.125H38.5938V9.24058H44.75V7.42808H38.5938V0.543701H37.5062H36.4188ZM55.2625 7.61245L55.2562 12.6843V17.7562H46.0156V20.6531H55.2562V30.6156H58.5156L58.55 25.6718L58.6125 20.7468L63.1906 20.6843L67.7531 20.6531V17.7562H58.525V7.61245H56.8937H55.2625ZM16.4906 7.79995V17.7687H7.15937V20.6593H16.4906V30.6281H19.5688V20.6562H28.9844V17.7656H19.5688V7.79995H18.0312H16.4906ZM35.5094 24.2687V35.4968H25.1875V39.2093H35.5125V50.4468H39.5125V39.2093H49.8531V35.4968H39.5094V24.2687H37.5187H35.5094ZM65.8875 29.1125V36.0531H59.6V38.5875H65.8875V45.6531H68.6594V38.5875H75V36.0531H68.6594V29.1156H67.3406L65.8875 29.1125ZM6.16563 29.5218V36.3156H0V38.2562H6.16563V45.1125H8.25V38.2562H14.5V36.3187H8.15312V29.5187H7.15937L6.16563 29.5218ZM55.2562 43.6343V53.8031H45.8313V56.7H55.2562V66.7531H58.6063V56.7031H67.9375V53.8031H58.6063V43.6343H56.9406H55.2562ZM16.3094 43.6593V53.8031H7.06875V56.7031H16.3094V66.6687H19.75V56.7031H28.9844V53.8031H19.75V43.6562H18.0312L16.3094 43.6593ZM36.0469 57.9656L36.0531 61.4125V64.85H29.8937V67.3875H36.0531V74.4562H38.9531L38.9906 70.9593L39.0438 67.3875H45.1969V64.85H38.9469V57.9656H37.4938H36.0469Z" fill="black"/>
</g>
<defs>
<clipPath id="clip0_71_893">
<rect width="75" height="75" fill="white"/>
</clipPath>
</defs>
</svg>
