<svg width="24" height="24" viewBox="0 0 24 24" fill="none" xmlns="http://www.w3.org/2000/svg">
<g clip-path="url(#clip0_71_1883)">
<path d="M12 0C5.383 0 0 5.383 0 12C0 18.617 5.383 24 12 24C18.617 24 24 18.617 24 12H21.3C21.3 17.128 17.128 21.3 12 21.3C6.872 21.3 2.7 17.128 2.7 12C2.7 6.872 6.872 2.7 12 2.7V0ZM19.4 2.583L11.895 11.954L8.388 9.08L6.386 11.516L11.127 15.404C11.2881 15.5369 11.474 15.6363 11.6739 15.6966C11.8738 15.7569 12.0837 15.7767 12.2913 15.755C12.499 15.7334 12.7003 15.6705 12.8834 15.5703C13.0665 15.47 13.2279 15.3343 13.358 15.171L21.862 4.554L19.4 2.583Z" fill="#4069E5"/>
</g>
<defs>
<clipPath id="clip0_71_1883">
<rect width="24" height="24" fill="white"/>
</clipPath>
</defs>
</svg>
