<svg width="32" height="32" viewBox="0 0 32 32" fill="none" xmlns="http://www.w3.org/2000/svg">
<g clip-path="url(#clip0_71_1754)">
<path d="M7.51312 9.25598C7.51312 8.73453 7.61583 8.21818 7.81538 7.73641C8.01494 7.25465 8.30743 6.81691 8.67615 6.44818C9.04488 6.07946 9.48262 5.78697 9.96438 5.58742C10.4461 5.38786 10.9625 5.28516 11.4839 5.28516C12.0054 5.28516 12.5218 5.38786 13.0035 5.58742C13.4853 5.78697 13.923 6.07946 14.2917 6.44818C14.6605 6.81691 14.953 7.25465 15.1525 7.73641C15.3521 8.21818 15.4548 8.73453 15.4548 9.25598C15.4548 10.3091 15.0364 11.3191 14.2917 12.0638C13.5471 12.8085 12.5371 13.2268 11.4839 13.2268C10.4308 13.2268 9.42082 12.8085 8.67615 12.0638C7.93148 11.3191 7.51312 10.3091 7.51312 9.25598ZM11.4839 2.63794C9.72873 2.63794 8.04541 3.3352 6.80429 4.57632C5.56316 5.81744 4.86591 7.50077 4.86591 9.25598C4.86591 11.0112 5.56316 12.6945 6.80429 13.9356C8.04541 15.1768 9.72873 15.874 11.4839 15.874C13.2392 15.874 14.9225 15.1768 16.1636 13.9356C17.4047 12.6945 18.102 11.0112 18.102 9.25598C18.102 7.50077 17.4047 5.81744 16.1636 4.57632C14.9225 3.3352 13.2392 2.63794 11.4839 2.63794ZM20.7492 2.63794H19.4256V5.28516H20.7492C21.2707 5.28516 21.787 5.38786 22.2688 5.58742C22.7505 5.78697 23.1883 6.07946 23.557 6.44818C23.9257 6.81691 24.2182 7.25465 24.4178 7.73641C24.6173 8.21818 24.72 8.73453 24.72 9.25598C24.72 9.77744 24.6173 10.2938 24.4178 10.7756C24.2182 11.2573 23.9257 11.6951 23.557 12.0638C23.1883 12.4325 22.7505 12.725 22.2688 12.9245C21.787 13.1241 21.2707 13.2268 20.7492 13.2268H19.4256V15.874H20.7492C22.5044 15.874 24.1877 15.1768 25.4289 13.9356C26.67 12.6945 27.3672 11.0112 27.3672 9.25598C27.3672 7.50077 26.67 5.81744 25.4289 4.57632C24.1877 3.3352 22.5044 2.63794 20.7492 2.63794ZM0.233276 25.1393C0.233276 23.3841 0.930532 21.7007 2.17166 20.4596C3.41278 19.2185 5.0961 18.5212 6.85132 18.5212H16.1166C17.8718 18.5212 19.5551 19.2185 20.7962 20.4596C22.0374 21.7007 22.7346 23.3841 22.7346 25.1393V27.7865H20.0874V25.1393C20.0874 24.0862 19.669 23.0762 18.9244 22.3315C18.1797 21.5868 17.1697 21.1685 16.1166 21.1685H6.85132C5.79819 21.1685 4.7882 21.5868 4.04352 22.3315C3.29885 23.0762 2.88049 24.0862 2.88049 25.1393V27.7865H0.233276V25.1393ZM31.9999 25.1393C31.9999 24.2702 31.8287 23.4096 31.4961 22.6067C31.1635 21.8037 30.676 21.0742 30.0615 20.4596C29.447 19.8451 28.7174 19.3576 27.9145 19.025C27.1115 18.6924 26.2509 18.5212 25.3818 18.5212H24.0582V21.1685H25.3818C26.435 21.1685 27.445 21.5868 28.1896 22.3315C28.9343 23.0762 29.3527 24.0862 29.3527 25.1393V27.7865H31.9999V25.1393Z" fill="white"/>
</g>
<defs>
<clipPath id="clip0_71_1754">
<rect width="31.7666" height="31.7666" fill="white" transform="translate(0.233276 -0.00927734)"/>
</clipPath>
</defs>
</svg>
