<svg width="31" height="33" viewBox="0 0 31 33" fill="none" xmlns="http://www.w3.org/2000/svg">
<path fill-rule="evenodd" clip-rule="evenodd" d="M27.255 20.8596H15.7595C17.0638 20.7434 18.2733 20.1292 19.1365 19.1445C19.9998 18.1598 20.4504 16.8803 20.3949 15.572C20.3394 14.2637 19.7819 13.027 18.8383 12.119C17.8947 11.211 16.6376 10.7015 15.3281 10.6962H11.573C12.1344 9.94135 12.5359 9.07989 12.753 8.16454C12.9702 7.24918 12.9983 6.29916 12.8357 5.37256C12.6732 4.44595 12.3233 3.56224 11.8076 2.77545C11.2919 1.98867 10.6211 1.31534 9.83625 0.796631L27.255 0.796631C28.0545 0.797815 28.8209 1.11625 29.3858 1.68201C29.9507 2.24777 30.268 3.01461 30.268 3.81412V17.8488C30.268 19.5118 28.918 20.8618 27.255 20.8618V20.8596ZM6.01186 10.7007C6.56224 10.7135 7.10962 10.6162 7.62184 10.4144C8.13406 10.2126 8.60077 9.91049 8.99455 9.52576C9.38834 9.14104 9.70124 8.68148 9.91487 8.17409C10.1285 7.66671 10.2385 7.12174 10.2385 6.57121C10.2385 6.02068 10.1285 5.47571 9.91487 4.96833C9.70124 4.46094 9.38834 4.00138 8.99455 3.61666C8.60077 3.23193 8.13406 2.9298 7.62184 2.72803C7.10962 2.52626 6.56224 2.42892 6.01186 2.44172C4.93329 2.46682 3.90734 2.9129 3.15339 3.6846C2.39944 4.45629 1.97734 5.49234 1.97734 6.57121C1.97734 7.65008 2.39944 8.68613 3.15339 9.45782C3.90734 10.2295 4.93329 10.6756 6.01186 10.7007ZM17.6236 15.788C17.6236 14.5184 16.5954 13.4902 15.3281 13.4902H6.0141C4.44316 13.4902 2.93657 14.1143 1.82575 15.2251C0.714933 16.3359 0.0908813 17.8425 0.0908813 19.4134V22.1068C0.0908813 23.2959 1.05648 24.2593 2.24559 24.2593H2.63004L3.26036 30.0931C3.31931 30.6408 3.57847 31.1475 3.9881 31.5159C4.39773 31.8843 4.92898 32.0884 5.47989 32.0891H6.60195C7.14115 32.0889 7.6621 31.8937 8.06876 31.5397C8.47541 31.1856 8.74037 30.6964 8.81478 30.1624L10.4979 18.0835H15.3258C16.5932 18.0835 17.6214 17.0553 17.6214 15.788H17.6236Z" fill="white"/>
</svg>
