<svg width="34" height="33" viewBox="0 0 34 33" fill="none" xmlns="http://www.w3.org/2000/svg">
<path fill-rule="evenodd" clip-rule="evenodd" d="M30.2384 21.1368H17.7076C19.1294 21.0147 20.4478 20.369 21.3888 19.3339C22.3298 18.2987 22.821 16.9538 22.7605 15.5785C22.7 14.2031 22.0923 12.9031 21.0637 11.9486C20.0351 10.9941 18.6648 10.4585 17.2373 10.453H13.144C13.756 9.65946 14.1937 8.75389 14.4304 7.79166C14.667 6.82942 14.6977 5.83075 14.5205 4.85669C14.3433 3.88264 13.962 2.95367 13.3998 2.12659C12.8376 1.29951 12.1064 0.591701 11.2509 0.0464325L30.2384 0.0464325C31.1099 0.0476776 31.9453 0.382421 32.5611 0.977154C33.1769 1.57189 33.5228 2.37799 33.5228 3.21845V17.9719C33.5228 19.72 32.0512 21.1392 30.2384 21.1392V21.1368ZM7.08206 10.4577C7.682 10.4712 8.27869 10.3688 8.83703 10.1567C9.39538 9.94462 9.90413 9.62702 10.3334 9.22259C10.7626 8.81816 11.1037 8.33507 11.3366 7.8017C11.5695 7.26833 11.6894 6.69545 11.6894 6.11673C11.6894 5.53801 11.5695 4.96514 11.3366 4.43177C11.1037 3.8984 10.7626 3.4153 10.3334 3.01087C9.90413 2.60645 9.39538 2.28885 8.83703 2.07674C8.27869 1.86464 7.682 1.76231 7.08206 1.77577C5.90634 1.80215 4.78799 2.27108 3.96614 3.0823C3.14429 3.89351 2.68417 4.98262 2.68417 6.11673C2.68417 7.25085 3.14429 8.33996 3.96614 9.15117C4.78799 9.96238 5.90634 10.4313 7.08206 10.4577ZM19.7396 15.8055C19.7396 14.4709 18.6188 13.39 17.2373 13.39H7.08449C5.37207 13.39 3.72979 14.0461 2.51893 15.2138C1.30806 16.3815 0.627808 17.9652 0.627808 19.6166V22.4479C0.627808 23.6979 1.68037 24.7106 2.97658 24.7106H3.39565L4.08274 30.8432C4.147 31.419 4.4295 31.9516 4.87602 32.3389C5.32255 32.7261 5.90165 32.9407 6.50217 32.9414H7.72529C8.31306 32.9412 8.88092 32.736 9.3242 32.3638C9.76748 31.9916 10.0563 31.4774 10.1374 30.916L11.9721 18.2186H17.2349C18.6164 18.2186 19.7372 17.1377 19.7372 15.8055H19.7396Z" fill="white"/>
</svg>
