<svg width="21" height="19" viewBox="0 0 21 19" fill="none" xmlns="http://www.w3.org/2000/svg">
<path d="M9.86773 15.8992C13.0059 12.2781 16.0357 9.82174 19.8415 6.34327C20.9809 5.30209 21.1569 3.47693 20.2633 2.18416C19.3134 0.809396 17.5084 0.534219 16.2877 1.62707C12.8017 4.745 10.0896 7.74836 7.51699 10.9561C7.38159 11.1246 7.31389 11.2089 7.24411 11.256C7.15789 11.3154 7.05784 11.3472 6.95554 11.3478C6.85324 11.3484 6.75287 11.3178 6.66606 11.2594C6.59524 11.2134 6.52754 11.1302 6.39214 10.9651L5.02148 9.2916C4.73066 8.93522 4.36752 8.65598 3.96032 8.4756C3.55311 8.29523 3.11281 8.21858 2.67366 8.25161C2.23451 8.28465 1.80834 8.42648 1.4283 8.66607C1.04826 8.90567 0.724596 9.23657 0.482475 9.63305C0.12719 10.2121 -0.0397076 10.902 0.0079865 11.5944C0.0556806 12.2868 0.315266 12.9425 0.745983 13.4586L2.89571 16.0306C4.50279 17.9535 5.30686 18.9161 6.27236 18.9251C7.23682 18.934 8.11379 17.9232 9.86773 15.8992Z" fill="white"/>
</svg>
