<svg width="75" height="75" viewBox="0 0 75 75" fill="none" xmlns="http://www.w3.org/2000/svg">
<path d="M30 12.5H35M22.5 20V7.5C22.5 6.17392 23.0268 4.90215 23.9645 3.96447C24.9021 3.02678 26.1739 2.5 27.5 2.5H47.5C48.8261 2.5 50.0979 3.02678 51.0355 3.96447C51.9732 4.90215 52.5 6.17392 52.5 7.5V32.5C52.5 33.8261 51.9732 35.0979 51.0355 36.0355C50.0979 36.9732 48.8261 37.5 47.5 37.5H27.5C26.1739 37.5 24.9021 38.0268 23.9645 38.9645C23.0268 39.9021 22.5 41.1739 22.5 42.5V67.5C22.5 68.8261 23.0268 70.0979 23.9645 71.0355C24.9021 71.9732 26.1739 72.5 27.5 72.5H47.5C48.8261 72.5 50.0979 71.9732 51.0355 71.0355C51.9732 70.0979 52.5 68.8261 52.5 67.5V55M40 22.5H7.5C6.17392 22.5 4.90215 23.0268 3.96447 23.9645C3.02678 24.9021 2.5 26.1739 2.5 27.5V52.5C2.5 53.8261 3.02678 55.0979 3.96447 56.0355C4.90215 56.9732 6.17392 57.5 7.5 57.5H22.5M35 52.5H67.5C68.8261 52.5 70.0979 51.9732 71.0355 51.0355C71.9732 50.0979 72.5 48.8261 72.5 47.5V22.5C72.5 21.1739 71.9732 19.9021 71.0355 18.9645C70.0979 18.0268 68.8261 17.5 67.5 17.5H52.5M40 62.5H45" stroke="black" stroke-width="5"/>
</svg>
