<svg width="34" height="33" viewBox="0 0 34 33" fill="none" xmlns="http://www.w3.org/2000/svg">
<path fill-rule="evenodd" clip-rule="evenodd" d="M30.2384 21.1368H17.7076C19.1294 21.0147 20.4478 20.369 21.3888 19.3339C22.3298 18.2988 22.821 16.9538 22.7605 15.5785C22.7 14.2031 22.0923 12.9032 21.0637 11.9487C20.0351 10.9942 18.6648 10.4585 17.2373 10.453H13.144C13.756 9.65947 14.1937 8.7539 14.4304 7.79167C14.667 6.82944 14.6977 5.83076 14.5205 4.85671C14.3433 3.88265 13.962 2.95369 13.3998 2.12661C12.8376 1.29953 12.1064 0.591716 11.2509 0.0464478L30.2384 0.0464478C31.1099 0.0476929 31.9453 0.382436 32.5611 0.97717C33.1769 1.5719 33.5228 2.37801 33.5228 3.21846V17.9719C33.5228 19.72 32.0512 21.1392 30.2384 21.1392V21.1368ZM7.08206 10.4577C7.682 10.4712 8.27869 10.3688 8.83703 10.1567C9.39538 9.94464 9.90413 9.62704 10.3334 9.22261C10.7626 8.81818 11.1037 8.33508 11.3366 7.80171C11.5695 7.26835 11.6894 6.69547 11.6894 6.11675C11.6894 5.53803 11.5695 4.96515 11.3366 4.43178C11.1037 3.89841 10.7626 3.41532 10.3334 3.01089C9.90413 2.60646 9.39538 2.28886 8.83703 2.07676C8.27869 1.86465 7.682 1.76232 7.08206 1.77578C5.90634 1.80216 4.78799 2.2711 3.96614 3.08231C3.14429 3.89353 2.68417 4.98263 2.68417 6.11675C2.68417 7.25086 3.14429 8.33997 3.96614 9.15119C4.78799 9.9624 5.90634 10.4313 7.08206 10.4577ZM19.7396 15.8055C19.7396 14.4709 18.6188 13.3901 17.2373 13.3901H7.08449C5.37207 13.3901 3.72979 14.0461 2.51893 15.2138C1.30806 16.3815 0.627808 17.9652 0.627808 19.6166V22.4479C0.627808 23.6979 1.68037 24.7106 2.97658 24.7106H3.39565L4.08274 30.8432C4.147 31.419 4.4295 31.9516 4.87602 32.3389C5.32255 32.7261 5.90165 32.9407 6.50217 32.9414H7.72529C8.31306 32.9412 8.88092 32.7361 9.3242 32.3638C9.76748 31.9916 10.0563 31.4774 10.1374 30.916L11.9721 18.2186H17.2349C18.6164 18.2186 19.7372 17.1377 19.7372 15.8055H19.7396Z" fill="white"/>
</svg>
