<svg width="22" height="18" viewBox="0 0 22 18" fill="none" xmlns="http://www.w3.org/2000/svg">
<path d="M9.96316 14.7881C13.1316 11.3812 16.1908 9.07011 20.0333 5.79742C21.1838 4.81783 21.3615 3.10064 20.4592 1.88434C19.5002 0.590906 17.6777 0.332007 16.4453 1.36021C12.9255 4.29369 10.1871 7.11939 7.58968 10.1374C7.45297 10.2959 7.38462 10.3752 7.31416 10.4196C7.22711 10.4754 7.12609 10.5054 7.0228 10.5059C6.91951 10.5065 6.81817 10.4776 6.73052 10.4227C6.65901 10.3794 6.59066 10.3012 6.45395 10.1459L5.07004 8.57133C4.7764 8.23603 4.40976 7.97331 3.99861 7.80361C3.58747 7.6339 3.14291 7.56178 2.69951 7.59287C2.25611 7.62395 1.82583 7.75739 1.44211 7.98281C1.0584 8.20823 0.731603 8.51956 0.48714 8.89258C0.12842 9.43736 -0.0400915 10.0864 0.00806373 10.7379C0.056219 11.3893 0.318314 12.0063 0.753197 12.4918L2.92371 14.9117C4.54634 16.7208 5.35818 17.6265 6.33301 17.6349C7.3068 17.6434 8.19225 16.6923 9.96316 14.7881Z" fill="white"/>
</svg>
