<svg width="18" height="10" viewBox="0 0 18 10" fill="none" xmlns="http://www.w3.org/2000/svg">
<path d="M16.0969 0.588504L9.27549 7.39434C9.12665 7.54361 8.9263 7.62688 8.71795 7.62609C8.50959 7.62529 8.31004 7.54049 8.16264 7.39009L1.40664 0.533894C1.25831 0.38357 1.05811 0.29889 0.849156 0.298092C0.640197 0.297294 0.439195 0.380442 0.289438 0.529629C0.215697 0.602506 0.156952 0.689723 0.116665 0.786138C0.0763784 0.882553 0.0553645 0.986217 0.054863 1.09102C0.0543615 1.19582 0.0743824 1.29964 0.113745 1.39636C0.153107 1.49308 0.211015 1.58074 0.284056 1.65418L7.03861 8.51037C7.48352 8.9609 8.08381 9.21465 8.71033 9.21704C9.33686 9.21944 9.93955 8.97027 10.3888 8.52316L17.2087 1.7188C17.2826 1.6459 17.3416 1.5586 17.382 1.46204C17.4224 1.36549 17.4435 1.26165 17.444 1.15667C17.4445 1.05169 17.4244 0.947702 17.3849 0.850845C17.3454 0.753988 17.2873 0.666232 17.2141 0.59277C17.0657 0.442445 16.8655 0.357766 16.6566 0.356968C16.4476 0.35617 16.2466 0.439318 16.0969 0.588504Z" fill="black"/>
</svg>
