<svg width="21" height="19" viewBox="0 0 21 19" fill="none" xmlns="http://www.w3.org/2000/svg">
<path d="M9.86773 15.0306C13.0059 11.4095 16.0357 8.95309 19.8415 5.47462C20.9809 4.43344 21.1569 2.60828 20.2633 1.31551C19.3134 -0.0592561 17.5084 -0.334433 16.2877 0.758414C12.8017 3.87634 10.0896 6.87971 7.51699 10.0875C7.38159 10.256 7.31389 10.3402 7.24411 10.3874C7.15789 10.4468 7.05784 10.4786 6.95554 10.4792C6.85324 10.4798 6.75287 10.4491 6.66606 10.3907C6.59524 10.3447 6.52754 10.2616 6.39214 10.0965L5.02148 8.42295C4.73066 8.06657 4.36752 7.78733 3.96032 7.60695C3.55311 7.42657 3.11281 7.34992 2.67366 7.38296C2.23451 7.41599 1.80834 7.55782 1.4283 7.79742C1.04826 8.03702 0.724596 8.36792 0.482475 8.76439C0.12719 9.34343 -0.0397076 10.0333 0.0079865 10.7257C0.0556806 11.4181 0.315266 12.0738 0.745983 12.5899L2.89571 15.162C4.50279 17.0849 5.30686 18.0474 6.27236 18.0564C7.23682 18.0654 8.11379 17.0545 9.86773 15.0306Z" fill="white"/>
</svg>
